<?xml version="1.0" encoding="UTF-8" standalone="no"?>
<!-- Created with Inkscape (http://www.inkscape.org/) -->

<svg
   version="1.1"
   id="svg1"
   width="536.1828"
   height="259.67413"
   viewBox="0 0 536.1828 259.67413"
   xmlns:xlink="http://www.w3.org/1999/xlink"
   xmlns="http://www.w3.org/2000/svg"
   xmlns:svg="http://www.w3.org/2000/svg">
  <defs
     id="defs1">
    <pattern
       xlink:href="#Wavy"
       id="pattern116"
       patternTransform="matrix(0.21920311,0.21920311,-0.42426407,0.42426407,0,0)"
       x="0"
       y="0"
       preserveAspectRatio="none" />
    <pattern
       patternUnits="userSpaceOnUse"
       width="30.066020"
       height="5.1805778"
       id="Wavy">
      <path
   style="stroke:none;"
   d="M 7.597,0.061 C 5.079,-0.187 2.656,0.302 -0.01,1.788 L -0.01,3.061 C 2.773,1.431 5.173,1.052 7.472,1.280 C 9.770,1.508 11.969,2.361 14.253,3.218 C 18.820,4.931 23.804,6.676 30.066,3.061 L 30.062,1.788 C 23.622,5.497 19.246,3.770 14.691,2.061 C 12.413,1.207 10.115,0.311 7.597,0.061 z "
   id="path786" />

    </pattern>
  </defs>
  <g
     id="g1"
     transform="translate(-133.27742,-48.949875)">
    <path
       id="path27"
       d="m 415.48932,300.81199 c 0.26879,-4.7206 -1.73004,-9.43069 -5.30666,-12.51466 -2.89758,-2.5386 -6.78166,-3.93591 -10.65866,-3.80267 -4.29874,0.11384 -8.52222,2.12017 -11.31068,5.42267 -2.56185,2.96985 -3.92657,6.9476 -3.70266,10.88933"
       style="fill:url(#pattern116);fill-opacity:1;stroke:#000000;stroke-width:1.9;stroke-linecap:butt;stroke-linejoin:miter;stroke-miterlimit:2;stroke-dasharray:none;stroke-opacity:1" />
    <path
       id="path28"
       d="m 435.07866,299.61999 c -0.46582,-0.66428 -1.27579,-0.95556 -1.99795,-1.25356 -2.48359,-0.88272 -5.10236,-1.29066 -7.69895,-1.68569 -3.39012,-0.47081 -6.80028,-0.78101 -10.2151,-1.00341"
       style="fill:none;stroke:#000000;stroke-width:0.8;stroke-linecap:butt;stroke-linejoin:miter;stroke-miterlimit:2;stroke-dasharray:none;stroke-opacity:1" />
    <path
       id="path29"
       d="m 385.15599,295.65599 c -4.67935,0.31442 -9.36481,0.72427 -13.97752,1.5963 -1.76865,0.36418 -3.56557,0.7359 -5.20127,1.52693 -0.39786,0.21463 -0.82078,0.45235 -1.05988,0.85144"
       style="fill:none;stroke:#000000;stroke-width:0.8;stroke-linecap:butt;stroke-linejoin:miter;stroke-miterlimit:2;stroke-dasharray:none;stroke-opacity:1" />
    <path
       id="path30"
       d="m 454.51066,296.39066 c 1.87198,-0.62769 3.99185,-1.13121 5.344,-2.672 0.7758,-1.00473 -0.2844,-2.10293 -1.16134,-2.56267 -3.26621,-1.78416 -7.0035,-2.40958 -10.61218,-3.13633 -11.39608,-1.96771 -22.96938,-2.64773 -34.51254,-3.05695 -3.4127,-0.10232 -6.82641,-0.17461 -10.24061,-0.19738"
       style="fill:none;stroke:#000000;stroke-width:0.8;stroke-linecap:butt;stroke-linejoin:miter;stroke-miterlimit:2;stroke-dasharray:none;stroke-opacity:1" />
    <path
       id="path31"
       style="display:inline;fill:none;stroke:#000000;stroke-width:0.8;stroke-linecap:butt;stroke-linejoin:miter;stroke-miterlimit:2;stroke-dasharray:none;stroke-opacity:1"
       d="m 397.28132,284.75999 c -15.45444,0.19211 -30.99005,0.73322 -46.24,3.42267 -3.63957,0.85367 -7.65861,1.32384 -10.67733,3.70267 -1.37248,1.31633 0.53057,2.83368 1.756,3.26533 6.17441,2.5878 12.94647,3.21443 19.52533,4.08933 21.2771,2.21947 42.74539,2.34203 64.08934,1.09334 9.64394,-0.71696 19.39988,-1.44068 28.776,-3.94267" />
    <path
       id="path32"
       d="m 357.848,220.617 0.336,-0.097 0.324,-0.102 0.316,-0.102 0.309,-0.101 0.297,-0.102 0.285,-0.101 0.281,-0.102 0.266,-0.101 0.261,-0.106 0.25,-0.101 0.239,-0.106 0.23,-0.105 0.223,-0.106 0.207,-0.105 0.203,-0.106 0.191,-0.105 0.18,-0.106 0.172,-0.109 0.164,-0.106 0.148,-0.109 0.145,-0.105 0.129,-0.11 0.121,-0.109 0.113,-0.106 0.102,-0.109 0.094,-0.109 0.078,-0.11 0.074,-0.105 0.059,-0.11 0.054,-0.109 0.039,-0.109 0.032,-0.11 0.019,-0.109 0.012,-0.109 v -0.11 l -0.008,-0.109 -0.02,-0.11 -0.031,-0.109 -0.039,-0.109 -0.047,-0.11 -0.062,-0.109 -0.071,-0.109 -0.078,-0.11 -0.09,-0.105 -0.101,-0.11 -0.109,-0.109 -0.122,-0.106 -0.128,-0.109 -0.141,-0.109 -0.149,-0.106 -0.16,-0.105 -0.172,-0.11 -0.179,-0.105 -0.188,-0.106 -0.199,-0.105 -0.211,-0.105 -0.219,-0.106 -0.23,-0.105 -0.238,-0.106 -0.247,-0.101 -0.257,-0.106 -0.266,-0.101 -0.277,-0.106 -0.285,-0.102 -0.297,-0.101 -0.305,-0.102 -0.313,-0.097 -0.324,-0.102 -0.332,-0.098 -0.344,-0.101 -0.351,-0.098 -0.359,-0.097 -0.368,-0.098 -0.379,-0.094 -0.386,-0.097 -0.395,-0.094 -0.406,-0.094 -0.414,-0.094 -0.422,-0.093 -0.43,-0.094 -0.437,-0.09 -0.449,-0.09 -0.454,-0.09 -0.464,-0.09 -0.473,-0.089 -0.48,-0.086 -0.489,-0.086 -0.496,-0.086 -0.504,-0.086 -0.511,-0.086 -0.52,-0.082 -0.527,-0.082 -0.536,-0.082 -0.542,-0.082 -0.547,-0.078 -0.559,-0.078 -0.562,-0.079 -0.575,-0.078 -0.578,-0.074 -0.586,-0.074 -0.59,-0.074 -0.601,-0.075 -0.606,-0.07 -0.609,-0.07 -0.621,-0.071 -0.625,-0.066 -0.629,-0.07 -0.641,-0.067 -0.64,-0.062 -0.653,-0.067 -0.656,-0.062 -0.66,-0.063 -0.668,-0.058 -0.672,-0.063 -0.676,-0.058 -0.683,-0.055 -0.692,-0.059 -0.691,-0.054 -0.699,-0.051 -0.703,-0.055 -1.422,-0.101 -0.719,-0.047 -0.723,-0.051 -0.726,-0.043 -0.731,-0.047 -0.734,-0.043 -0.738,-0.043 -0.743,-0.043 -0.746,-0.039 -0.75,-0.039 -0.754,-0.039 -0.757,-0.035 -0.762,-0.035 -0.762,-0.031 -0.769,-0.036 -0.77,-0.031 -0.769,-0.027 -0.778,-0.031 -0.777,-0.024 -0.781,-0.027 -0.782,-0.024 -1.57,-0.046 -1.578,-0.04 -1.586,-0.031 -1.594,-0.031 -1.593,-0.024 -2.403,-0.023 -1.601,-0.008 -0.805,-0.004 h -2.406 l -0.805,0.004 -1.602,0.008 -1.601,0.016 -0.801,0.011 -2.39,0.036 -0.793,0.015 -0.793,0.02 -0.793,0.015 -1.579,0.039 -1.57,0.047 -0.781,0.024 -0.781,0.027 -0.778,0.027 -0.773,0.028 -0.774,0.031 -0.769,0.031 -0.766,0.032 -1.523,0.07 -0.754,0.035 -0.754,0.039 -0.75,0.039 -0.746,0.039 -0.742,0.043 -0.739,0.043 -0.734,0.043 -1.453,0.094 -0.723,0.047 -1.429,0.101 -0.707,0.051 -0.704,0.051 -1.39,0.109 -0.688,0.059 -0.679,0.054 -0.68,0.059 -0.672,0.063 -0.664,0.058 -0.66,0.063 -0.656,0.062 -0.649,0.067 -0.64,0.066 -0.637,0.066 -0.629,0.067 -0.625,0.07 -0.617,0.066 -0.614,0.075 -0.601,0.07 -0.598,0.074 -0.593,0.074 -0.582,0.075 -0.579,0.074 -0.57,0.078 -0.562,0.078 -0.555,0.078 -0.551,0.078 -0.539,0.082 -0.535,0.082 -0.524,0.082 -0.519,0.083 -0.512,0.085 -0.5,0.086 -0.496,0.086 -0.484,0.086 -0.481,0.09 -0.469,0.086 -0.464,0.09 -0.453,0.09 -0.446,0.09 -0.437,0.093 -0.43,0.09 -0.418,0.094 -0.41,0.094 -0.406,0.097 -0.391,0.094 -0.387,0.094 -0.375,0.098 -0.367,0.097 -0.359,0.098 -0.348,0.097 -0.34,0.102 -0.332,0.098 -0.32,0.101 -0.313,0.098 -0.304,0.101 -0.293,0.102 -0.285,0.106 -0.274,0.101 -0.265,0.102 -0.258,0.105 -0.246,0.102 -0.235,0.105 -0.226,0.106 -0.219,0.105 -0.207,0.106 -0.195,0.105 -0.188,0.105 -0.18,0.106 -0.168,0.109 -0.156,0.106 -0.148,0.109 -0.141,0.106 -0.125,0.109 -0.121,0.109 -0.105,0.106 -0.102,0.109 -0.086,0.11 -0.078,0.109 -0.066,0.109 -0.059,0.11 -0.051,0.105 -0.035,0.11 -0.027,0.109 -0.02,0.109 -0.008,0.11 0.004,0.109 0.012,0.109 0.023,0.11 0.036,0.109 0.042,0.11 0.051,0.109 0.067,0.109 0.07,0.11 0.086,0.109 0.094,0.106 0.101,0.109 0.114,0.109 0.125,0.11 0.132,0.105 0.145,0.109 0.152,0.106 0.164,0.109 0.176,0.106 0.18,0.105 0.195,0.106 0.203,0.105 0.211,0.106 0.223,0.105 0.234,0.106 0.242,0.105 0.25,0.102 0.262,0.105 0.27,0.102 0.281,0.101 0.289,0.102 0.297,0.101 0.308,0.102 0.321,0.102 0.324,0.101 0.336,0.098 0.347,0.097 0.356,0.098 0.363,0.098 0.371,0.097 0.383,0.098 0.391,0.094 0.398,0.097 0.406,0.094 0.418,0.094 0.426,0.09 0.434,0.094 0.441,0.089 0.453,0.09 0.457,0.09 0.469,0.09 0.477,0.09 0.48,0.086 0.492,0.086 0.5,0.086 0.508,0.085 0.516,0.082 0.523,0.086 0.531,0.082 0.54,0.079 0.546,0.082 0.551,0.078 0.563,0.078 0.566,0.078 0.574,0.078 0.582,0.074 0.59,0.075 0.598,0.074 0.601,0.074 0.61,0.07 0.617,0.071 0.621,0.07 0.629,0.066 0.633,0.067 1.289,0.133 0.652,0.062 0.66,0.063 0.664,0.062 0.672,0.059 0.676,0.058 0.68,0.059 0.687,0.058 0.692,0.055 0.699,0.055 0.703,0.054 0.703,0.051 1.43,0.102 1.445,0.094 0.731,0.046 0.734,0.043 0.738,0.047 0.742,0.039 0.747,0.043 1.5,0.078 0.757,0.036 1.524,0.07 0.765,0.035 0.77,0.031 0.773,0.032 0.774,0.027 0.781,0.027 0.777,0.028 0.786,0.027 0.785,0.023 0.785,0.02 0.789,0.023 0.789,0.02 0.793,0.019 2.391,0.047 0.796,0.012 0.801,0.012 0.801,0.008 0.801,0.011 0.801,0.008 1.609,0.008 0.801,0.004 0.804,0.004 h 1.61 l 0.805,-0.004 0.8,-0.004 0.805,-0.004 0.805,-0.008 1.601,-0.015 1.602,-0.024 0.797,-0.012 1.593,-0.031 0.793,-0.015 0.793,-0.02 0.789,-0.02 1.579,-0.046 0.781,-0.024 0.785,-0.023 1.555,-0.055 1.546,-0.062 0.77,-0.032 0.766,-0.031 1.523,-0.07 1.508,-0.078 0.746,-0.039 0.746,-0.043 0.742,-0.043 0.739,-0.043 0.73,-0.043 0.73,-0.047 0.723,-0.047 0.723,-0.051 0.715,-0.047 0.711,-0.054 0.707,-0.051 0.699,-0.055 0.695,-0.055 0.692,-0.054 0.687,-0.059 0.68,-0.058 0.676,-0.059 0.668,-0.059 0.664,-0.062 0.656,-0.063 0.652,-0.066 0.649,-0.063 1.273,-0.132 0.625,-0.071 0.621,-0.07 0.617,-0.07 0.606,-0.071 0.601,-0.074 0.594,-0.07 0.59,-0.078 0.578,-0.074 0.574,-0.079 0.567,-0.074 0.558,-0.082 0.555,-0.078 0.543,-0.082 0.539,-0.078 0.527,-0.082 0.524,-0.086 0.511,-0.082 0.508,-0.086 0.496,-0.086 0.493,-0.086 0.48,-0.09 0.477,-0.086 0.464,-0.09 0.458,-0.089 0.449,-0.09 0.441,-0.094 0.434,-0.09 0.422,-0.094 0.414,-0.093 0.406,-0.094 0.398,-0.094 0.387,-0.098 0.383,-0.097 0.371,-0.094 0.359,-0.098 0.356,-0.101 z"
       style="display:inline;fill:none;stroke:#000000;stroke-width:0.6;stroke-linecap:butt;stroke-linejoin:miter;stroke-miterlimit:2;stroke-dasharray:none;stroke-opacity:1"
       transform="scale(1.3333333)" />
    <path
       id="path33"
       d="m 374.82,219.941 0.43,-0.129 0.422,-0.128 0.406,-0.129 0.399,-0.133 0.382,-0.129 0.371,-0.133 0.36,-0.133 0.348,-0.132 0.335,-0.133 0.325,-0.137 0.308,-0.133 0.297,-0.137 0.285,-0.136 0.274,-0.137 0.258,-0.137 0.246,-0.136 0.234,-0.137 0.223,-0.137 0.211,-0.14 0.195,-0.137 0.18,-0.141 0.171,-0.14 0.157,-0.141 0.144,-0.137 0.133,-0.14 0.117,-0.141 0.106,-0.141 0.09,-0.14 0.082,-0.141 0.066,-0.141 0.051,-0.144 0.039,-0.141 0.027,-0.14 0.016,-0.141 v -0.141 l -0.012,-0.14 -0.027,-0.145 -0.039,-0.14 -0.051,-0.141 -0.063,-0.141 -0.078,-0.14 -0.09,-0.141 -0.105,-0.14 -0.117,-0.141 -0.129,-0.141 -0.145,-0.14 -0.156,-0.137 -0.168,-0.141 -0.18,-0.14 -0.195,-0.137 -0.207,-0.141 -0.219,-0.136 -0.234,-0.137 -0.246,-0.137 -0.258,-0.137 -0.269,-0.136 -0.286,-0.137 -0.293,-0.137 -0.308,-0.133 -0.321,-0.136 -0.335,-0.133 -0.344,-0.133 -0.36,-0.133 -0.371,-0.132 -0.379,-0.129 -0.394,-0.133 -0.406,-0.129 -0.422,-0.129 -0.43,-0.129 -0.441,-0.129 -0.453,-0.125 -0.465,-0.129 -0.481,-0.125 -0.488,-0.125 -0.5,-0.121 -0.512,-0.125 -0.523,-0.121 -0.535,-0.121 -0.543,-0.121 -0.559,-0.117 -0.566,-0.121 -0.578,-0.118 -0.59,-0.113 -0.598,-0.117 -0.613,-0.113 -0.621,-0.114 -0.629,-0.113 -0.645,-0.109 -0.648,-0.11 -0.664,-0.109 -0.672,-0.109 -0.684,-0.106 -0.691,-0.105 -0.699,-0.106 -0.711,-0.101 -0.723,-0.102 -0.727,-0.101 -0.742,-0.098 -0.746,-0.098 -0.758,-0.097 -0.765,-0.094 -0.774,-0.094 -0.785,-0.094 -0.793,-0.09 -0.797,-0.089 -0.808,-0.09 -0.817,-0.086 -0.824,-0.086 -0.832,-0.086 -0.844,-0.082 -0.847,-0.082 -0.852,-0.078 -0.863,-0.078 -0.871,-0.078 -0.875,-0.079 -0.883,-0.07 -0.891,-0.074 -0.898,-0.07 -0.902,-0.071 -0.911,-0.066 -0.918,-0.067 -0.921,-0.066 -0.926,-0.062 -0.934,-0.063 -0.941,-0.059 -0.946,-0.058 -0.949,-0.059 -1.914,-0.109 -0.965,-0.051 -0.972,-0.051 -0.973,-0.047 -1.961,-0.093 -0.988,-0.043 -0.992,-0.039 -0.996,-0.043 -0.997,-0.039 -2.007,-0.071 -1.008,-0.031 -1.012,-0.031 -1.016,-0.031 -1.015,-0.028 -1.02,-0.027 -2.047,-0.047 -1.023,-0.02 -1.031,-0.019 -1.028,-0.02 -2.062,-0.031 -1.035,-0.012 -1.035,-0.007 -1.036,-0.012 -1.035,-0.004 -1.039,-0.008 -1.035,-0.004 h -2.078 l -1.035,0.004 -1.039,0.004 -1.035,0.004 -1.036,0.008 -1.039,0.008 -1.031,0.011 -1.035,0.012 -2.063,0.031 -1.031,0.02 -1.027,0.019 -1.024,0.02 -2.046,0.047 -1.02,0.027 -1.016,0.027 -2.023,0.063 -1.008,0.035 -2.008,0.07 -0.996,0.04 -0.996,0.042 -0.988,0.04 -0.988,0.046 -0.981,0.043 -0.976,0.047 -0.977,0.051 -0.969,0.051 -0.965,0.051 -0.957,0.054 -0.953,0.055 -0.949,0.059 -0.945,0.058 -0.938,0.059 -0.933,0.062 -0.926,0.063 -0.922,0.066 -0.914,0.067 -0.91,0.066 -0.903,0.07 -0.894,0.074 -0.891,0.071 -0.879,0.074 -0.879,0.078 -0.867,0.074 -0.859,0.082 -0.856,0.079 -0.843,0.082 -0.84,0.082 -0.832,0.086 -0.821,0.085 -0.816,0.086 -0.809,0.09 -0.796,0.09 -0.79,0.094 -0.781,0.09 -0.773,0.097 -0.766,0.094 -0.754,0.098 -0.746,0.097 -0.738,0.098 -0.727,0.102 -0.718,0.101 -0.711,0.106 -0.7,0.101 -0.691,0.106 -0.68,0.109 -0.668,0.106 -0.66,0.109 -0.652,0.109 -0.637,0.114 -0.629,0.113 -0.621,0.113 -0.609,0.113 -0.598,0.114 -0.586,0.117 -0.578,0.117 -0.562,0.121 -0.555,0.117 -0.543,0.121 -0.535,0.122 -0.52,0.121 -0.508,0.125 -0.984,0.246 -0.477,0.129 -0.464,0.125 -0.45,0.129 -0.441,0.125 -0.43,0.128 -0.414,0.129 -0.406,0.133 -0.391,0.129 -0.379,0.133 -0.367,0.133 -0.355,0.133 -0.344,0.132 -0.332,0.133 -0.316,0.133 -0.309,0.137 -0.293,0.136 -0.281,0.133 -0.266,0.137 -0.258,0.137 -0.242,0.14 -0.23,0.137 -0.219,0.137 -0.203,0.14 -0.192,0.137 -0.179,0.141 -0.164,0.14 -0.157,0.137 -0.14,0.141 -0.125,0.14 -0.113,0.141 -0.102,0.141 -0.09,0.14 -0.074,0.141 -0.063,0.14 -0.05,0.141 -0.036,0.145 -0.023,0.14 -0.008,0.141 0.004,0.14 0.016,0.141 0.027,0.141 0.043,0.14 0.055,0.145 0.07,0.14 0.082,0.141 0.094,0.141 0.109,0.14 0.121,0.141 0.133,0.141 0.145,0.136 0.16,0.141 0.172,0.141 0.187,0.136 0.199,0.141 0.211,0.137 0.223,0.14 0.238,0.137 0.246,0.137 0.266,0.136 0.273,0.137 0.286,0.137 0.3,0.133 0.313,0.136 0.324,0.133 0.34,0.137 0.348,0.133 0.363,0.133 0.375,0.128 0.387,0.133 0.398,0.129 0.41,0.133 0.422,0.129 0.434,0.129 0.449,0.125 0.457,0.129 0.469,0.125 0.48,0.125 0.496,0.125 0.504,0.125 0.516,0.121 0.527,0.121 0.539,0.121 0.551,0.121 0.558,0.117 0.575,0.121 0.582,0.117 0.593,0.114 0.606,0.117 0.613,0.113 0.625,0.114 0.637,0.113 0.645,0.109 0.66,0.11 0.664,0.109 0.676,0.105 0.687,0.106 0.695,0.105 0.707,0.106 0.715,0.101 0.727,0.102 0.734,0.102 0.742,0.097 0.754,0.098 0.762,0.097 0.769,0.094 0.782,0.094 0.785,0.094 0.797,0.09 0.804,0.089 0.817,0.086 0.82,0.09 0.828,0.082 0.836,0.086 0.848,0.082 0.851,0.082 0.86,0.078 0.867,0.078 0.875,0.079 0.879,0.074 0.891,0.074 0.894,0.07 0.898,0.071 0.911,0.07 0.914,0.066 0.922,0.067 0.925,0.066 0.934,0.063 0.937,0.058 0.942,0.063 0.949,0.054 0.957,0.059 0.957,0.055 0.965,0.051 1.945,0.101 1.961,0.094 0.989,0.047 0.992,0.043 0.992,0.039 1,0.039 1.004,0.039 1.004,0.035 1.011,0.035 1.012,0.031 1.016,0.032 1.015,0.027 2.047,0.055 1.024,0.023 1.027,0.024 2.063,0.039 1.031,0.015 1.035,0.016 1.035,0.012 1.039,0.011 1.035,0.012 1.039,0.008 2.079,0.008 1.042,0.004 h 2.079 l 1.039,-0.004 1.043,-0.004 1.039,-0.008 1.035,-0.008 1.039,-0.012 1.035,-0.011 1.039,-0.012 1.031,-0.016 1.036,-0.015 1.031,-0.02 1.027,-0.019 1.027,-0.024 1.024,-0.023 1.023,-0.028 1.02,-0.027 1.019,-0.031 1.016,-0.027 1.012,-0.036 1.008,-0.035 1.004,-0.035 1.003,-0.039 0.997,-0.039 0.996,-0.043 1.976,-0.086 1.961,-0.094 0.973,-0.05 0.968,-0.051 1.922,-0.11 0.954,-0.058 0.949,-0.055 0.941,-0.062 0.938,-0.059 0.929,-0.066 0.926,-0.063 0.922,-0.066 0.91,-0.067 0.91,-0.07 0.899,-0.07 0.894,-0.075 0.887,-0.074 0.879,-0.074 0.875,-0.078 0.863,-0.078 0.86,-0.078 0.851,-0.082 0.844,-0.082 0.832,-0.086 0.828,-0.086 0.82,-0.086 0.813,-0.09 0.801,-0.09 0.796,-0.09 0.786,-0.094 0.777,-0.093 0.77,-0.094 0.761,-0.098 0.75,-0.097 0.742,-0.098 0.731,-0.102 0.723,-0.101 0.714,-0.102 0.703,-0.105 0.696,-0.106 0.683,-0.105 0.676,-0.109 0.664,-0.106 0.657,-0.113 0.644,-0.11 0.633,-0.113 0.625,-0.113 0.613,-0.113 0.602,-0.114 0.59,-0.117 0.582,-0.117 0.57,-0.121 0.558,-0.117 0.547,-0.122 0.536,-0.121 0.527,-0.121 0.512,-0.125 0.503,-0.121 0.493,-0.125 0.476,-0.125 0.469,-0.129 0.457,-0.125 z"
       style="display:inline;fill:none;stroke:#000000;stroke-width:0.6;stroke-linecap:butt;stroke-linejoin:miter;stroke-miterlimit:2;stroke-dasharray:none;stroke-opacity:1"
       transform="scale(1.3333333)" />
    <path
       id="path34"
       d="m 391.793,219.777 0.527,-0.156 0.516,-0.16 0.504,-0.16 0.484,-0.16 0.469,-0.161 0.457,-0.16 0.441,-0.164 0.426,-0.164 0.41,-0.164 0.395,-0.164 0.383,-0.164 0.363,-0.168 0.348,-0.168 0.336,-0.168 0.316,-0.168 0.305,-0.168 0.285,-0.168 0.273,-0.168 0.254,-0.172 0.238,-0.168 0.227,-0.172 0.207,-0.171 0.191,-0.172 0.18,-0.172 0.16,-0.172 0.145,-0.172 0.129,-0.172 0.109,-0.172 0.098,-0.171 0.082,-0.176 0.062,-0.172 0.051,-0.172 0.031,-0.176 0.016,-0.172 v -0.172 l -0.016,-0.175 -0.031,-0.172 -0.047,-0.172 -0.062,-0.176 -0.082,-0.172 -0.094,-0.172 -0.113,-0.171 -0.125,-0.176 -0.145,-0.172 -0.16,-0.172 -0.176,-0.172 -0.191,-0.168 -0.207,-0.172 -0.223,-0.172 -0.238,-0.168 -0.254,-0.171 -0.27,-0.168 -0.285,-0.172 -0.304,-0.168 -0.317,-0.168 -0.332,-0.164 -0.348,-0.168 -0.363,-0.168 -0.379,-0.164 -0.394,-0.164 -0.407,-0.164 -0.425,-0.165 -0.438,-0.164 -0.457,-0.16 -0.469,-0.16 -0.484,-0.16 -0.496,-0.16 -0.516,-0.16 -0.527,-0.157 -0.543,-0.156 -0.559,-0.156 -0.57,-0.156 -0.586,-0.153 -0.601,-0.152 -0.614,-0.152 -0.625,-0.149 -0.644,-0.152 -0.656,-0.149 -0.668,-0.144 -0.684,-0.149 -0.695,-0.144 -0.711,-0.145 -0.723,-0.14 -0.734,-0.141 -0.75,-0.141 -0.762,-0.14 -0.773,-0.137 -0.79,-0.137 -0.8,-0.132 -0.813,-0.133 -0.824,-0.133 -0.836,-0.133 -0.848,-0.129 -0.859,-0.125 -0.875,-0.129 -0.883,-0.125 -0.894,-0.121 -0.907,-0.121 -0.918,-0.121 -0.929,-0.117 -0.938,-0.117 -0.949,-0.117 -0.961,-0.114 -0.973,-0.109 -0.98,-0.113 -0.992,-0.106 -1.004,-0.109 -1.008,-0.106 -1.023,-0.101 -1.032,-0.102 -1.039,-0.101 -1.047,-0.098 -1.058,-0.094 -1.067,-0.097 -1.074,-0.09 -1.086,-0.094 -1.09,-0.086 -1.101,-0.09 -1.11,-0.082 -1.113,-0.086 -1.125,-0.078 -1.129,-0.082 -1.14,-0.078 -1.145,-0.074 -1.152,-0.075 -1.16,-0.07 -1.164,-0.07 -1.172,-0.067 -1.176,-0.066 -1.184,-0.062 -1.191,-0.063 -1.195,-0.059 -1.2,-0.058 -1.207,-0.055 -1.211,-0.055 -1.214,-0.05 -1.219,-0.047 -2.453,-0.094 -1.235,-0.043 -2.476,-0.078 -1.246,-0.039 -1.246,-0.031 -1.25,-0.035 -1.254,-0.028 -1.254,-0.031 -1.258,-0.024 -2.523,-0.046 -1.266,-0.02 -1.266,-0.016 -1.269,-0.015 -1.266,-0.012 -1.273,-0.012 -2.539,-0.015 -1.274,-0.004 h -3.816 l -1.274,0.008 -1.269,0.004 -1.274,0.011 -1.269,0.008 -1.27,0.016 -2.531,0.031 -1.266,0.019 -1.261,0.024 -1.258,0.023 -2.516,0.055 -2.5,0.063 -1.246,0.035 -1.246,0.039 -2.477,0.078 -1.23,0.043 -2.453,0.094 -1.219,0.05 -1.215,0.051 -2.414,0.11 -1.199,0.058 -1.191,0.059 -1.192,0.062 -1.179,0.063 -1.18,0.066 -1.168,0.07 -1.164,0.067 -1.16,0.074 -1.149,0.074 -1.144,0.075 -1.137,0.078 -1.129,0.082 -1.121,0.078 -1.117,0.086 -1.106,0.086 -1.097,0.086 -1.09,0.089 -1.082,0.09 -1.074,0.094 -1.067,0.094 -1.055,0.097 -1.046,0.098 -1.039,0.102 -1.028,0.101 -1.019,0.106 -1.012,0.105 -0.996,0.106 -0.992,0.109 -0.977,0.109 -0.973,0.114 -0.957,0.113 -0.949,0.117 -0.937,0.117 -0.926,0.118 -0.914,0.121 -0.906,0.121 -0.891,0.125 -0.883,0.125 -0.871,0.125 -0.855,0.129 -0.848,0.129 -0.836,0.128 -0.82,0.133 -0.809,0.133 -0.801,0.137 -0.781,0.136 -0.773,0.137 -0.762,0.141 -0.746,0.14 -0.731,0.141 -0.722,0.141 -0.707,0.144 -0.692,0.145 -0.683,0.148 -0.664,0.149 -0.653,0.148 -0.64,0.149 -0.625,0.152 -0.614,0.152 -0.593,0.153 -0.586,0.152 -0.567,0.156 -0.554,0.156 -0.54,0.157 -0.527,0.156 -0.512,0.16 -0.496,0.16 -0.48,0.16 -0.465,0.161 -0.453,0.164 -0.434,0.16 -0.422,0.164 -0.406,0.164 -0.39,0.164 -0.379,0.168 -0.36,0.164 -0.343,0.168 -0.329,0.168 -0.316,0.168 -0.297,0.168 -0.281,0.168 -0.27,0.168 -0.25,0.172 -0.238,0.172 -0.219,0.168 -0.203,0.171 -0.187,0.172 -0.172,0.172 -0.156,0.172 -0.141,0.172 -0.125,0.172 -0.109,0.172 -0.094,0.175 -0.074,0.172 -0.063,0.172 -0.043,0.176 -0.031,0.172 -0.012,0.172 0.004,0.175 0.02,0.172 0.035,0.172 0.054,0.176 0.067,0.172 0.082,0.172 0.101,0.176 0.118,0.171 0.129,0.172 0.148,0.172 0.164,0.172 0.18,0.172 0.195,0.172 0.211,0.168 0.227,0.172 0.242,0.172 0.261,0.167 0.274,0.172 0.289,0.168 0.305,0.168 0.324,0.168 0.336,0.168 0.351,0.164 0.368,0.168 0.382,0.164 0.399,0.164 0.414,0.164 0.43,0.165 0.441,0.164 0.461,0.16 0.473,0.16 0.488,0.16 0.504,0.16 0.519,0.16 0.531,0.157 0.547,0.156 0.563,0.156 0.578,0.156 0.59,0.153 0.605,0.152 0.617,0.152 0.633,0.149 0.649,0.152 0.66,0.149 0.672,0.144 0.691,0.149 0.699,0.144 0.715,0.145 0.731,0.14 0.738,0.141 0.754,0.141 0.769,0.14 0.778,0.137 0.793,0.137 0.808,0.132 0.817,0.133 0.828,0.133 0.844,0.129 0.855,0.129 0.863,0.129 0.879,0.125 0.891,0.125 0.898,0.121 0.914,0.121 0.922,0.121 0.934,0.117 0.945,0.117 0.957,0.118 0.969,0.109 0.977,0.113 0.984,0.11 1,0.109 1.008,0.105 1.015,0.106 1.028,0.101 1.035,0.102 1.047,0.102 1.054,0.097 1.063,0.094 1.074,0.094 1.082,0.094 1.09,0.089 1.098,0.09 1.105,0.086 1.113,0.086 1.121,0.082 1.133,0.078 1.137,0.082 1.141,0.074 1.152,0.075 1.16,0.074 1.164,0.07 1.172,0.071 1.176,0.066 1.183,0.066 1.192,0.063 1.195,0.058 1.199,0.059 1.207,0.059 1.211,0.054 1.215,0.051 1.223,0.051 1.226,0.051 1.231,0.047 1.234,0.042 1.239,0.043 1.242,0.04 1.246,0.039 1.246,0.035 2.508,0.062 1.258,0.031 1.261,0.028 2.532,0.047 1.265,0.019 1.27,0.02 1.269,0.015 1.274,0.016 1.273,0.012 1.274,0.008 1.277,0.007 1.273,0.004 1.278,0.004 h 2.554 l 1.274,-0.004 1.277,-0.004 1.274,-0.007 2.546,-0.024 1.274,-0.015 1.269,-0.016 2.539,-0.039 1.262,-0.024 1.266,-0.027 2.515,-0.055 1.254,-0.031 1.254,-0.035 1.25,-0.035 2.485,-0.078 1.238,-0.043 1.234,-0.047 2.453,-0.094 1.219,-0.051 1.219,-0.054 2.414,-0.11 1.199,-0.062 1.195,-0.059 1.188,-0.062 1.184,-0.067 1.175,-0.066 1.168,-0.071 1.164,-0.07 1.157,-0.074 1.152,-0.074 1.141,-0.078 1.136,-0.082 1.129,-0.079 1.117,-0.085 1.114,-0.082 1.105,-0.09 1.098,-0.086 1.086,-0.094 1.082,-0.09 1.07,-0.094 1.063,-0.097 1.05,-0.098 1.043,-0.101 1.036,-0.102 1.027,-0.102 1.015,-0.105 1.004,-0.106 0.996,-0.109 0.985,-0.109 0.976,-0.114 0.965,-0.113 0.953,-0.117 0.942,-0.117 0.933,-0.117 0.922,-0.122 0.91,-0.121 0.899,-0.121 0.887,-0.125 0.875,-0.129 0.863,-0.125 0.851,-0.129 0.84,-0.132 0.828,-0.133 0.817,-0.133 0.801,-0.133 0.793,-0.136 0.777,-0.137 0.762,-0.141 0.754,-0.14 0.738,-0.141 0.726,-0.141 0.711,-0.144 0.7,-0.145 0.683,-0.148 0.672,-0.149 0.66,-0.148 0.645,-0.149 0.629,-0.152 0.617,-0.152 0.601,-0.153 0.586,-0.152 0.575,-0.156 0.558,-0.156 z"
       style="display:inline;fill:none;stroke:#000000;stroke-width:0.6;stroke-linecap:butt;stroke-linejoin:miter;stroke-miterlimit:2;stroke-dasharray:none;stroke-opacity:1"
       transform="scale(1.3333333)" />
    <path
       id="path35"
       d="m 408.77,219.918 0.628,-0.188 0.61,-0.187 0.594,-0.191 0.574,-0.188 0.558,-0.191 0.539,-0.192 0.52,-0.195 0.508,-0.191 0.484,-0.196 0.469,-0.195 0.449,-0.195 0.43,-0.2 0.414,-0.195 0.394,-0.199 0.379,-0.199 0.36,-0.2 0.336,-0.199 0.324,-0.203 0.301,-0.199 0.285,-0.203 0.265,-0.2 0.247,-0.203 0.226,-0.203 0.207,-0.203 0.191,-0.207 0.172,-0.203 0.153,-0.203 0.133,-0.203 0.113,-0.207 0.094,-0.203 0.078,-0.207 0.054,-0.204 0.039,-0.207 0.02,-0.203 v -0.207 l -0.02,-0.207 -0.039,-0.203 -0.054,-0.207 -0.078,-0.203 -0.094,-0.207 -0.113,-0.203 -0.133,-0.203 -0.153,-0.207 -0.168,-0.204 -0.191,-0.203 -0.207,-0.203 -0.227,-0.203 -0.246,-0.203 -0.265,-0.203 -0.285,-0.199 -0.301,-0.203 -0.321,-0.2 -0.339,-0.199 -0.356,-0.199 -0.375,-0.199 -0.394,-0.2 -0.414,-0.195 -0.43,-0.199 -0.449,-0.195 -0.469,-0.196 -0.485,-0.195 -0.503,-0.191 -0.52,-0.192 -0.539,-0.195 -0.555,-0.188 -0.574,-0.191 -0.594,-0.188 -0.605,-0.187 -0.629,-0.188 -0.641,-0.187 -0.66,-0.184 -0.68,-0.183 -0.691,-0.18 -0.715,-0.184 -0.726,-0.179 -0.742,-0.176 -0.762,-0.18 -0.778,-0.176 -0.793,-0.171 -0.808,-0.176 -0.824,-0.172 -0.844,-0.168 -0.856,-0.172 -0.871,-0.164 -0.89,-0.168 -0.903,-0.164 -0.918,-0.164 -0.933,-0.16 -0.946,-0.16 -0.964,-0.157 -0.977,-0.156 -0.988,-0.156 -1.008,-0.152 -1.02,-0.149 -1.031,-0.152 -1.047,-0.145 -1.062,-0.148 -1.074,-0.145 -1.086,-0.14 -1.102,-0.141 -1.113,-0.137 -1.125,-0.136 -1.137,-0.137 -1.152,-0.133 -1.164,-0.129 -1.172,-0.129 -1.188,-0.125 -1.199,-0.125 -1.207,-0.125 -1.223,-0.117 -1.23,-0.121 -1.242,-0.113 -1.254,-0.117 -1.266,-0.11 -1.273,-0.109 -1.281,-0.11 -1.297,-0.105 -1.301,-0.102 -1.313,-0.101 -1.324,-0.098 -1.328,-0.098 -1.34,-0.093 -1.347,-0.09 -1.36,-0.09 -1.363,-0.086 -1.371,-0.086 -1.383,-0.082 -1.387,-0.082 -1.394,-0.078 -1.403,-0.074 -1.41,-0.071 -1.414,-0.074 -1.422,-0.066 -1.429,-0.067 -1.434,-0.062 -1.441,-0.059 -1.446,-0.058 -1.449,-0.059 -2.914,-0.101 -1.465,-0.051 -2.945,-0.086 -1.477,-0.043 -1.48,-0.035 -1.485,-0.039 -2.976,-0.063 -1.496,-0.027 -1.492,-0.028 -1.5,-0.019 -1.5,-0.024 -1.5,-0.015 -1.504,-0.016 -3.008,-0.023 -1.508,-0.008 -3.016,-0.008 h -1.503 l -1.508,0.004 -1.508,0.008 -1.504,0.008 -1.508,0.008 -3.008,0.031 -1.5,0.015 -1.5,0.024 -2.992,0.047 -1.492,0.031 -2.977,0.062 -1.484,0.036 -1.48,0.039 -1.477,0.043 -1.473,0.043 -1.468,0.047 -1.461,0.046 -1.461,0.051 -1.453,0.055 -1.45,0.058 -1.445,0.059 -1.437,0.059 -1.434,0.062 -1.43,0.067 -1.418,0.07 -1.414,0.07 -1.41,0.074 -1.398,0.075 -1.395,0.078 -1.387,0.082 -1.378,0.082 -1.372,0.086 -1.363,0.086 -1.355,0.09 -1.348,0.093 -1.336,0.094 -1.328,0.098 -1.32,0.097 -1.313,0.102 -1.301,0.105 -1.293,0.106 -1.281,0.105 -1.273,0.11 -1.258,0.113 -1.254,0.113 -1.238,0.117 -1.231,0.121 -1.218,0.122 -1.208,0.121 -1.195,0.125 -1.183,0.125 -1.176,0.129 -1.16,0.132 -1.149,0.133 -1.133,0.133 -1.125,0.141 -1.109,0.136 -1.098,0.141 -1.086,0.141 -1.07,0.144 -1.058,0.149 -1.043,0.148 -1.032,0.148 -1.019,0.153 -1,0.152 -0.988,0.156 -0.977,0.157 -0.957,0.156 -0.945,0.16 -0.93,0.164 -0.918,0.16 -0.899,0.164 -0.882,0.168 -0.871,0.168 -0.852,0.168 -0.84,0.172 -0.82,0.172 -0.809,0.172 -0.789,0.176 -0.773,0.175 -0.758,0.176 -0.742,0.18 -0.723,0.18 -0.707,0.183 -0.691,0.18 -0.676,0.183 -0.656,0.188 -0.641,0.184 -0.621,0.187 -0.606,0.188 -0.589,0.187 -0.571,0.191 -0.55,0.192 -0.536,0.191 -0.519,0.192 -0.5,0.195 -0.481,0.195 -0.464,0.196 -0.446,0.195 -0.426,0.195 -0.41,0.199 -0.39,0.2 -0.371,0.199 -0.356,0.199 -0.332,0.199 -0.32,0.2 -0.297,0.203 -0.277,0.199 -0.262,0.203 -0.242,0.203 -0.223,0.203 -0.207,0.203 -0.184,0.204 -0.168,0.203 -0.148,0.207 -0.129,0.203 -0.109,0.207 -0.094,0.203 -0.07,0.207 -0.055,0.203 -0.031,0.207 -0.016,0.203 0.004,0.207 0.019,0.203 0.043,0.207 0.063,0.204 0.078,0.207 0.098,0.203 0.121,0.207 0.137,0.203 0.152,0.203 0.176,0.207 0.195,0.203 0.211,0.203 0.23,0.203 0.25,0.204 0.27,0.199 0.289,0.203 0.305,0.199 0.324,0.203 0.344,0.199 0.363,0.2 0.379,0.199 0.398,0.199 0.418,0.195 0.434,0.2 0.453,0.195 0.473,0.195 0.488,0.196 0.508,0.191 0.527,0.191 0.543,0.192 0.559,0.191 0.582,0.192 0.593,0.187 0.614,0.188 0.632,0.187 0.649,0.188 0.664,0.183 0.684,0.184 0.699,0.18 0.715,0.183 0.734,0.18 0.75,0.176 0.766,0.179 0.781,0.176 0.801,0.172 0.816,0.176 0.828,0.172 0.848,0.168 0.863,0.171 0.879,0.164 0.891,0.168 0.91,0.165 0.926,0.164 0.937,0.16 0.953,0.16 0.969,0.156 0.984,0.156 0.996,0.157 1.012,0.152 1.028,0.148 1.039,0.149 1.054,0.148 1.067,0.145 1.082,0.144 1.093,0.145 1.106,0.137 1.121,0.14 1.133,0.137 1.144,0.133 1.161,0.133 1.167,0.128 1.184,0.129 1.191,0.125 1.208,0.125 1.214,0.121 1.231,0.122 1.238,0.117 1.25,0.117 1.262,0.113 1.269,0.113 1.282,0.11 1.293,0.105 1.3,0.106 1.309,0.101 1.32,0.102 1.332,0.098 1.336,0.093 1.348,0.094 1.355,0.094 1.364,0.086 1.375,0.09 1.379,0.082 1.386,0.082 1.399,0.078 1.402,0.078 1.41,0.074 1.414,0.074 1.426,0.067 1.43,0.07 1.433,0.063 1.442,0.062 2.898,0.117 2.922,0.11 1.469,0.047 1.472,0.05 1.477,0.043 1.48,0.043 1.485,0.039 1.484,0.035 1.492,0.036 1.496,0.035 1.497,0.027 1.5,0.027 1.5,0.024 1.507,0.023 1.504,0.02 1.508,0.015 1.512,0.016 1.508,0.008 1.511,0.012 3.024,0.007 1.515,0.004 3.024,-0.007 3.023,-0.016 1.512,-0.012 3.016,-0.031 1.504,-0.02 3.007,-0.046 1.5,-0.028 1.496,-0.031 1.493,-0.031 1.492,-0.035 2.969,-0.079 1.48,-0.043 1.477,-0.046 1.468,-0.047 1.469,-0.051 1.461,-0.051 1.457,-0.058 1.453,-0.055 1.446,-0.063 1.441,-0.062 1.434,-0.067 1.425,-0.066 1.422,-0.07 1.418,-0.074 1.406,-0.075 1.403,-0.078 1.394,-0.078 1.387,-0.082 1.379,-0.086 1.371,-0.086 1.359,-0.09 1.356,-0.09 1.348,-0.093 1.335,-0.098 1.329,-0.098 1.316,-0.101 1.309,-0.102 1.3,-0.105 1.289,-0.11 1.278,-0.109 1.269,-0.113 1.258,-0.114 1.25,-0.113 1.238,-0.121 1.223,-0.121 1.215,-0.121 1.203,-0.125 1.191,-0.125 1.18,-0.129 1.168,-0.133 1.156,-0.133 1.145,-0.132 1.129,-0.137 1.117,-0.137 1.105,-0.14 1.09,-0.145 1.078,-0.145 1.067,-0.144 1.051,-0.149 1.035,-0.148 1.023,-0.152 1.012,-0.153 0.992,-0.156 0.981,-0.156 0.968,-0.156 0.95,-0.161 0.937,-0.164 0.922,-0.16 0.902,-0.164 0.891,-0.168 0.875,-0.168 0.859,-0.168 0.844,-0.172 0.828,-0.171 0.813,-0.172 0.796,-0.176 0.778,-0.176 0.765,-0.176 0.747,-0.179 0.73,-0.18 0.711,-0.184 0.695,-0.179 0.68,-0.184 0.664,-0.187 z"
       style="display:inline;fill:none;stroke:#000000;stroke-width:0.6;stroke-linecap:butt;stroke-linejoin:miter;stroke-miterlimit:2;stroke-dasharray:none;stroke-opacity:1"
       transform="scale(1.3333333)" />
    <path
       id="path36"
       d="m 425.75,220.254 0.727,-0.215 0.703,-0.219 0.687,-0.218 0.664,-0.219 0.645,-0.223 0.621,-0.222 0.605,-0.223 0.582,-0.223 0.563,-0.226 0.539,-0.223 0.519,-0.227 0.5,-0.23 0.477,-0.227 0.457,-0.23 0.434,-0.231 0.414,-0.23 0.39,-0.23 0.371,-0.231 0.352,-0.234 0.328,-0.235 0.305,-0.234 0.285,-0.231 0.262,-0.238 0.238,-0.234 0.219,-0.235 0.199,-0.234 0.176,-0.238 0.152,-0.235 0.133,-0.238 0.109,-0.238 0.086,-0.235 0.067,-0.238 0.043,-0.238 0.023,-0.238 -0.004,-0.235 -0.019,-0.238 -0.047,-0.238 -0.067,-0.239 -0.086,-0.234 -0.109,-0.238 -0.133,-0.235 -0.156,-0.238 -0.176,-0.234 -0.195,-0.239 -0.219,-0.234 -0.242,-0.234 -0.262,-0.235 -0.285,-0.234 -0.309,-0.234 -0.328,-0.235 -0.347,-0.23 -0.371,-0.231 -0.395,-0.234 -0.41,-0.231 -0.438,-0.226 -0.457,-0.231 -0.476,-0.226 -0.496,-0.231 -0.52,-0.226 -0.543,-0.223 -0.558,-0.226 -0.582,-0.223 -0.602,-0.223 -0.625,-0.222 -0.645,-0.219 -0.66,-0.219 -0.687,-0.219 -0.703,-0.218 -0.723,-0.215 -0.746,-0.215 -0.762,-0.211 -0.785,-0.215 -0.801,-0.211 -0.824,-0.207 -0.84,-0.207 -0.859,-0.207 -0.883,-0.203 -0.898,-0.203 -0.914,-0.203 -0.938,-0.2 -0.953,-0.199 -0.973,-0.195 -0.992,-0.195 -1.008,-0.196 -1.023,-0.191 -1.047,-0.188 -1.059,-0.191 -1.082,-0.184 -1.093,-0.183 -1.114,-0.184 -1.129,-0.179 -1.144,-0.18 -1.164,-0.176 -1.18,-0.176 -1.191,-0.172 -1.211,-0.171 -1.227,-0.168 -1.242,-0.168 -1.258,-0.164 -1.269,-0.161 -1.289,-0.16 -1.301,-0.156 -1.317,-0.156 -1.328,-0.153 -1.344,-0.152 -1.359,-0.148 -1.371,-0.145 -1.383,-0.144 -1.398,-0.141 -1.414,-0.141 -1.422,-0.136 -1.438,-0.133 -1.445,-0.133 -1.461,-0.129 -1.473,-0.129 -1.484,-0.121 -1.496,-0.121 -1.504,-0.121 -1.519,-0.117 -1.528,-0.114 -1.539,-0.109 -1.547,-0.109 -1.558,-0.106 -1.567,-0.105 -1.578,-0.098 -1.586,-0.102 -1.597,-0.093 -1.602,-0.094 -1.613,-0.09 -1.621,-0.086 -1.629,-0.082 -1.637,-0.082 -1.641,-0.078 -1.652,-0.078 -1.656,-0.07 -1.664,-0.071 -1.672,-0.066 -1.676,-0.067 -1.684,-0.062 -1.687,-0.059 -1.691,-0.054 -1.7,-0.051 -1.703,-0.051 -1.707,-0.047 -1.711,-0.047 -1.715,-0.039 -1.718,-0.039 -1.723,-0.035 -3.453,-0.062 -1.731,-0.024 -3.468,-0.047 -3.477,-0.031 -1.738,-0.012 -3.485,-0.015 h -3.48 l -3.484,0.007 -1.739,0.012 -1.742,0.012 -1.738,0.016 -1.735,0.015 -3.468,0.047 -1.731,0.027 -1.726,0.028 -1.727,0.035 -1.723,0.035 -1.718,0.039 -1.715,0.043 -1.707,0.043 -1.707,0.047 -1.703,0.051 -3.391,0.109 -1.684,0.059 -1.683,0.062 -1.676,0.067 -1.668,0.066 -1.66,0.07 -1.656,0.075 -1.653,0.078 -1.64,0.078 -1.633,0.082 -1.629,0.086 -1.617,0.086 -1.613,0.09 -1.602,0.093 -1.594,0.094 -1.586,0.098 -1.574,0.101 -1.566,0.106 -1.555,0.105 -1.547,0.11 -1.535,0.113 -1.527,0.113 -1.516,0.117 -1.504,0.121 -1.492,0.121 -1.481,0.125 -1.472,0.125 -1.457,0.133 -1.446,0.129 -1.433,0.137 -1.422,0.137 -1.41,0.14 -1.395,0.141 -1.383,0.144 -1.367,0.145 -1.355,0.152 -1.34,0.149 -1.328,0.156 -1.313,0.152 -1.3,0.16 -1.282,0.161 -1.269,0.164 -1.254,0.164 -1.238,0.164 -1.223,0.172 -1.207,0.168 -1.192,0.175 -1.175,0.172 -1.16,0.18 -1.145,0.18 -1.125,0.179 -1.109,0.184 -1.094,0.184 -1.074,0.187 -1.059,0.188 -1.039,0.191 -1.023,0.191 -1.004,0.192 -0.989,0.195 -0.968,0.199 -0.95,0.2 -0.933,0.199 -0.914,0.203 -0.895,0.203 -0.875,0.203 -0.855,0.207 -0.84,0.207 -0.816,0.211 -0.801,0.211 -0.778,0.211 -0.761,0.215 -0.739,0.215 -0.722,0.215 -0.699,0.218 -0.68,0.219 -0.66,0.219 -0.641,0.219 -0.617,0.222 -0.598,0.223 -0.578,0.223 -0.559,0.226 -0.535,0.227 -0.515,0.226 -0.493,0.227 -0.476,0.226 -0.449,0.231 -0.434,0.23 -0.406,0.231 -0.391,0.23 -0.367,0.231 -0.344,0.234 -0.324,0.234 -0.301,0.235 -0.281,0.23 -0.258,0.239 -0.238,0.234 -0.215,0.234 -0.195,0.235 -0.172,0.238 -0.149,0.234 -0.128,0.239 -0.106,0.238 -0.082,0.234 -0.062,0.239 -0.039,0.238 -0.02,0.234 0.004,0.238 0.027,0.239 0.047,0.238 0.07,0.234 0.09,0.239 0.114,0.238 0.136,0.234 0.16,0.239 0.176,0.234 0.203,0.238 0.223,0.235 0.246,0.234 0.266,0.234 0.289,0.235 0.308,0.234 0.332,0.235 0.356,0.23 0.375,0.234 0.394,0.231 0.418,0.23 0.442,0.231 0.457,0.226 0.484,0.231 0.5,0.226 0.524,0.227 0.546,0.226 0.567,0.223 0.586,0.223 0.605,0.222 0.629,0.223 0.649,0.223 0.668,0.219 0.687,0.218 0.711,0.215 0.727,0.219 0.75,0.215 0.769,0.211 0.789,0.211 0.809,0.211 0.828,0.21 0.848,0.207 0.867,0.208 0.883,0.203 0.906,0.203 0.922,0.203 0.941,0.199 0.961,0.199 0.981,0.196 0.996,0.195 1.015,0.195 1.032,0.192 1.05,0.191 1.067,0.188 1.086,0.183 1.101,0.188 1.121,0.179 1.137,0.184 1.152,0.176 1.172,0.179 1.184,0.172 1.203,0.172 1.219,0.172 1.234,0.168 1.25,0.168 1.262,0.164 1.281,0.16 1.297,0.16 1.308,0.157 1.325,0.156 1.336,0.152 1.355,0.153 1.363,0.148 1.383,0.145 1.391,0.144 1.41,0.141 1.418,0.14 1.434,0.137 1.445,0.133 1.457,0.133 1.469,0.125 1.48,0.129 1.492,0.125 1.504,0.121 1.516,0.117 1.527,0.117 1.539,0.113 1.547,0.11 1.559,0.109 1.566,0.106 1.578,0.101 1.586,0.102 1.594,0.093 1.605,0.098 1.614,0.09 1.621,0.09 1.633,0.086 1.636,0.082 1.645,0.082 1.652,0.078 1.66,0.074 1.668,0.074 1.672,0.067 1.68,0.066 1.687,0.067 1.692,0.058 1.695,0.059 1.703,0.054 1.707,0.051 1.711,0.051 3.438,0.086 1.726,0.043 1.727,0.035 1.73,0.035 1.735,0.031 1.738,0.028 1.738,0.023 1.742,0.024 1.743,0.019 3.492,0.031 1.746,0.008 1.75,0.008 1.75,0.004 h 3.496 l 1.75,-0.004 1.75,-0.008 1.746,-0.011 3.492,-0.032 1.742,-0.019 1.743,-0.024 1.738,-0.023 3.469,-0.063 1.73,-0.035 1.727,-0.035 1.726,-0.043 1.719,-0.043 1.715,-0.047 1.711,-0.047 1.707,-0.054 1.699,-0.055 1.695,-0.059 1.692,-0.062 1.683,-0.063 1.68,-0.066 1.672,-0.07 1.664,-0.075 1.66,-0.074 1.652,-0.078 1.645,-0.082 1.637,-0.082 1.625,-0.086 1.621,-0.09 1.613,-0.093 1.602,-0.094 1.593,-0.098 1.586,-0.101 1.575,-0.102 1.566,-0.109 1.555,-0.106 1.547,-0.113 1.535,-0.113 1.523,-0.118 1.516,-0.117 1.5,-0.125 1.492,-0.121 1.477,-0.129 1.468,-0.129 1.457,-0.132 1.442,-0.133 1.429,-0.137 1.418,-0.141 1.403,-0.14 1.39,-0.145 1.379,-0.144 1.364,-0.153 1.351,-0.148 1.332,-0.152 1.324,-0.157 1.305,-0.16 1.293,-0.16 1.277,-0.16 1.262,-0.164 1.246,-0.168 1.231,-0.168 1.214,-0.172 1.2,-0.172 1.183,-0.176 1.164,-0.176 1.153,-0.179 1.132,-0.184 1.118,-0.179 1.097,-0.188 1.082,-0.187 1.067,-0.188 1.047,-0.187 1.027,-0.196 1.012,-0.191 0.996,-0.195 0.972,-0.2 0.957,-0.199 0.938,-0.199 0.922,-0.203 0.898,-0.203 0.883,-0.204 0.863,-0.207 0.844,-0.211 0.824,-0.207 0.805,-0.21 0.785,-0.211 0.762,-0.215 z"
       style="display:inline;fill:none;stroke:#000000;stroke-width:0.6;stroke-linecap:butt;stroke-linejoin:miter;stroke-miterlimit:2;stroke-dasharray:none;stroke-opacity:1"
       transform="scale(1.3333333)" />
    <g
       id="g110"
       style="display:inline">
      <path
         id="path61"
         d="m 400.75466,217.68266 c 32.39458,7.07648 61.3889,23.87444 90.00533,39.848 25.64597,14.61536 51.03496,29.69173 76.44266,44.724"
         style="fill:none;stroke:#cc79a7;stroke-width:0.8;stroke-linecap:butt;stroke-linejoin:miter;stroke-miterlimit:2;stroke-dasharray:none;stroke-opacity:1" />
      <path
         id="path60"
         d="m 400.75466,217.68266 c -2.3328,-0.71588 -3.74198,1.62843 -4.97334,3.38 -3.75698,6.23567 -6.2447,13.31797 -9,20.17733 -1.89068,4.91327 -3.73509,9.84398 -5.56266,14.776"
         style="display:inline;fill:none;stroke:#009e73;stroke-width:0.8;stroke-linecap:butt;stroke-linejoin:miter;stroke-miterlimit:2;stroke-dasharray:none;stroke-opacity:1" />
      <path
         id="path65"
         d="m 400.75466,217.68266 c -27.23631,-7.69171 -55.86646,-4.80912 -83.71867,-3.28133 -21.93716,1.47828 -43.85876,3.26234 -65.78133,5.02"
         style="fill:none;stroke:#0072b2;stroke-width:0.8;stroke-linecap:butt;stroke-linejoin:miter;stroke-miterlimit:2;stroke-dasharray:none;stroke-opacity:1" />
      <path
         id="path66"
         d="m 400.75466,217.68266 c 45.24764,-3.07297 90.35355,3.68877 135.20933,8.69733 28.35472,3.45974 56.68544,7.08983 85.01466,10.73467"
         style="fill:none;stroke:#e69f00;stroke-width:0.8;stroke-linecap:butt;stroke-linejoin:miter;stroke-miterlimit:2;stroke-dasharray:none;stroke-opacity:1" />
      <path
         id="path63"
         d="m 400.75466,217.68266 c 33.6181,-4.06324 67.05186,3.48077 99.86533,9.77067 23.38762,4.71777 46.71674,9.73452 70.052,14.73466"
         style="fill:none;stroke:#d55e00;stroke-width:0.8;stroke-linecap:butt;stroke-linejoin:miter;stroke-miterlimit:2;stroke-dasharray:none;stroke-opacity:1" />
      <path
         id="path67"
         d="m 400.75466,217.68266 c -40.04602,-2.45771 -79.74083,5.24068 -119.21333,10.844 -31.99178,4.96101 -63.94778,10.14227 -95.90533,15.312"
         style="fill:none;stroke:#009e73;stroke-width:0.8;stroke-linecap:butt;stroke-linejoin:miter;stroke-miterlimit:2;stroke-dasharray:none;stroke-opacity:1" />
      <path
         id="path68"
         d="m 400.75466,217.68266 c 13.27924,-15.08319 32.68817,-22.03138 50.26133,-30.67733 1.66761,-0.76829 3.33096,-1.54336 5,-2.308"
         style="fill:none;stroke:#cc79a7;stroke-width:0.8;stroke-linecap:butt;stroke-linejoin:miter;stroke-miterlimit:2;stroke-dasharray:none;stroke-opacity:1" />
      <path
         id="path69"
         d="m 400.75466,217.68266 c 21.42864,-3.22333 42.89725,2.06783 64,5.348 20.76251,3.71653 41.48667,7.65749 62.20933,11.58933"
         style="fill:none;stroke:#56b4e9;stroke-width:0.8;stroke-linecap:butt;stroke-linejoin:miter;stroke-miterlimit:2;stroke-dasharray:none;stroke-opacity:1" />
      <path
         id="path70"
         d="m 400.75466,217.68266 c -43.97054,-12.8124 -89.75493,-17.27329 -134.95733,-23.656 -23.24699,-3.04348 -46.50362,-6.01289 -69.76133,-8.96933"
         style="fill:none;stroke:#d55e00;stroke-width:0.8;stroke-linecap:butt;stroke-linejoin:miter;stroke-miterlimit:2;stroke-dasharray:none;stroke-opacity:1" />
      <path
         id="path71"
         d="m 400.75466,217.68266 c 44.28172,-14.9232 90.58167,-22.36838 136.24533,-31.71866 44.10638,-8.57235 88.24762,-16.97568 132.38533,-25.39067"
         style="fill:none;stroke:#f0e442;stroke-width:0.8;stroke-linecap:butt;stroke-linejoin:miter;stroke-miterlimit:2;stroke-dasharray:none;stroke-opacity:1" />
      <path
         id="path72"
         d="m 400.75466,217.68266 c -20.9432,-8.75951 -44.09627,-9.46135 -66.27067,-12.68267 -8.2948,-0.95492 -16.59157,-1.89724 -24.89066,-2.812"
         style="fill:none;stroke:#0072b2;stroke-width:0.8;stroke-linecap:butt;stroke-linejoin:miter;stroke-miterlimit:2;stroke-dasharray:none;stroke-opacity:1" />
      <path
         id="path73"
         d="M 400.75466,217.68266 C 385.49848,193.75678 365.56148,173.35214 347.12532,151.92133 335.1824,138.40964 323.2103,124.92164 311.23999,111.432"
         style="fill:none;stroke:#e69f00;stroke-width:0.8;stroke-linecap:butt;stroke-linejoin:miter;stroke-miterlimit:2;stroke-dasharray:none;stroke-opacity:1" />
      <path
         id="path74"
         d="m 400.75466,217.68266 c 40.79156,-14.62036 83.38773,-23.21356 125.39599,-33.52133 20.74731,-4.88621 41.50367,-9.73433 62.26134,-14.57733"
         style="fill:none;stroke:#009e73;stroke-width:0.8;stroke-linecap:butt;stroke-linejoin:miter;stroke-miterlimit:2;stroke-dasharray:none;stroke-opacity:1" />
      <path
         id="path75"
         d="M 400.75466,217.68266 C 355.56186,199.38457 308.33417,186.84098 261.79199,172.536 219.01018,159.81246 176.19804,147.19313 133.39066,134.55733"
         style="fill:none;stroke:#cc79a7;stroke-width:0.8;stroke-linecap:butt;stroke-linejoin:miter;stroke-miterlimit:2;stroke-dasharray:none;stroke-opacity:1" />
      <path
         id="path76"
         d="m 400.75466,217.68266 c 30.72494,-30.77165 64.68857,-58.04734 97.49999,-86.52133 9.09563,-7.75327 18.18786,-15.51051 27.28667,-23.26"
         style="fill:none;stroke:#56b4e9;stroke-width:0.8;stroke-linecap:butt;stroke-linejoin:miter;stroke-miterlimit:2;stroke-dasharray:none;stroke-opacity:1" />
      <path
         id="path77"
         d="m 400.75466,217.68266 c 8.63253,-25.46213 20.67374,-49.595 31.204,-74.29733 0.82105,-1.85525 1.63973,-3.71139 2.45733,-5.568"
         style="fill:none;stroke:#d55e00;stroke-width:0.8;stroke-linecap:butt;stroke-linejoin:miter;stroke-miterlimit:2;stroke-dasharray:none;stroke-opacity:1" />
      <path
         id="path78"
         d="M 400.75466,217.68266 C 364.63308,186.37704 325.65785,158.58653 287.72933,129.552 268.06426,114.74474 248.39479,99.943998 228.71866,85.150665"
         style="fill:none;stroke:#f0e442;stroke-width:0.8;stroke-linecap:butt;stroke-linejoin:miter;stroke-miterlimit:2;stroke-dasharray:none;stroke-opacity:1" />
      <path
         id="path79"
         d="M 400.75466,217.68266 C 450.30614,186.1187 501.99241,158.09433 552.87999,128.776 583.04213,111.63103 613.21144,94.49916 643.38532,77.374665"
         style="fill:none;stroke:#0072b2;stroke-width:0.8;stroke-linecap:butt;stroke-linejoin:miter;stroke-miterlimit:2;stroke-dasharray:none;stroke-opacity:1" />
      <path
         id="path80"
         d="M 400.75466,217.68266 C 364.02619,186.61094 324.95646,158.4633 286.83866,129.14533 272.32289,118.14775 257.79978,107.16055 243.28133,96.166664"
         style="fill:none;stroke:#e69f00;stroke-width:0.8;stroke-linecap:butt;stroke-linejoin:miter;stroke-miterlimit:2;stroke-dasharray:none;stroke-opacity:1" />
      <path
         id="path81"
         d="m 400.75466,217.68266 c 2.84473,-56.23192 5.42396,-112.47726 8.16266,-168.713328"
         style="fill:none;stroke:#009e73;stroke-width:0.8;stroke-linecap:butt;stroke-linejoin:miter;stroke-miterlimit:2;stroke-dasharray:none;stroke-opacity:1" />
      <path
         id="path82"
         d="m 400.75466,217.68266 c 34.56506,-40.5638 71.26143,-79.24554 107.02133,-118.745329 1.79424,-1.950647 3.5793,-3.909327 5.36933,-5.864"
         style="fill:none;stroke:#cc79a7;stroke-width:0.8;stroke-linecap:butt;stroke-linejoin:miter;stroke-miterlimit:2;stroke-dasharray:none;stroke-opacity:1" />
      <path
         id="path83"
         d="M 400.75466,217.68266 C 350.43002,168.20718 298.09869,120.78629 246.71866,72.415998"
         style="fill:none;stroke:#56b4e9;stroke-width:0.8;stroke-linecap:butt;stroke-linejoin:miter;stroke-miterlimit:2;stroke-dasharray:none;stroke-opacity:1" />
      <path
         id="path84"
         d="M 400.75466,217.68266 C 437.23379,166.29457 474.90359,115.76029 512.06265,64.863998"
         style="fill:none;stroke:#d55e00;stroke-width:0.8;stroke-linecap:butt;stroke-linejoin:miter;stroke-miterlimit:2;stroke-dasharray:none;stroke-opacity:1" />
      <path
         id="path85"
         d="M 400.75466,217.68266 C 392.18496,175.31302 383.39515,132.98471 374.69332,90.639998"
         style="fill:none;stroke:#f0e442;stroke-width:0.8;stroke-linecap:butt;stroke-linejoin:miter;stroke-miterlimit:2;stroke-dasharray:none;stroke-opacity:1" />
      <path
         id="path86"
         d="M 400.75466,217.68266 C 384.17192,166.16484 366.87022,114.88073 349.86932,63.499998"
         style="fill:none;stroke:#0072b2;stroke-width:0.8;stroke-linecap:butt;stroke-linejoin:miter;stroke-miterlimit:2;stroke-dasharray:none;stroke-opacity:1" />
      <path
         id="path87"
         d="M 400.75466,217.68266 C 427.22603,171.21009 454.24559,125.0513 481.03065,78.759998"
         style="fill:none;stroke:#e69f00;stroke-width:0.8;stroke-linecap:butt;stroke-linejoin:miter;stroke-miterlimit:2;stroke-dasharray:none;stroke-opacity:1" />
      <path
         id="path88"
         d="m 400.75466,217.68266 c -19.9996,-46.3198 -40.26638,-92.52324 -60.432,-138.770662"
         style="fill:none;stroke:#009e73;stroke-width:0.8;stroke-linecap:butt;stroke-linejoin:miter;stroke-miterlimit:2;stroke-dasharray:none;stroke-opacity:1" />
      <path
         id="path89"
         d="m 400.75466,217.68266 c 5.76056,-49.32428 11.4798,-98.65283 17.21466,-147.979995"
         style="fill:none;stroke:#cc79a7;stroke-width:0.8;stroke-linecap:butt;stroke-linejoin:miter;stroke-miterlimit:2;stroke-dasharray:none;stroke-opacity:1" />
      <path
         id="path90"
         d="m 400.75466,217.68266 c -0.0538,-47.48978 -0.10614,-94.97957 -0.16134,-142.469329"
         style="fill:none;stroke:#56b4e9;stroke-width:0.8;stroke-linecap:butt;stroke-linejoin:miter;stroke-miterlimit:2;stroke-dasharray:none;stroke-opacity:1" />
      <path
         id="path62"
         d="m 400.75466,217.68266 c -44.58556,1.37192 -87.59595,14.45556 -130.156,26.59867 -36.79384,10.78304 -73.46173,22.02664 -110.14,33.21866"
         style="fill:none;stroke:#56b4e9;stroke-width:0.8;stroke-linecap:butt;stroke-linejoin:miter;stroke-miterlimit:2;stroke-dasharray:none;stroke-opacity:1" />
      <path
         id="path56"
         d="m 400.75466,217.68266 c 5.2429,17.68152 11.1439,35.23253 14.99466,53.26533 1.2599,7.33943 2.84051,15.8811 -1.84266,22.40134 -0.79548,0.94644 -1.80572,1.71108 -2.93734,2.21333"
         style="display:inline;fill:none;stroke:#d55e00;stroke-width:0.8;stroke-linecap:butt;stroke-linejoin:miter;stroke-miterlimit:2;stroke-dasharray:none;stroke-opacity:1" />
      <path
         id="path58"
         d="m 400.75466,217.68266 c -2.95587,22.82387 -6.48332,45.59955 -9.12934,68.73867 -0.41321,4.07354 -0.75248,8.1594 -0.90133,12.26666"
         style="display:inline;fill:none;stroke:#0072b2;stroke-width:0.8;stroke-linecap:butt;stroke-linejoin:miter;stroke-miterlimit:2;stroke-dasharray:none;stroke-opacity:1" />
      <path
         id="path59"
         d="m 400.75466,217.68266 c -25.36023,9.88204 -45.97702,28.33548 -65.94267,46.30133 -13.91864,12.69818 -27.54441,25.69567 -41.172,38.69334"
         style="display:inline;fill:none;stroke:#e69f00;stroke-width:0.8;stroke-linecap:butt;stroke-linejoin:miter;stroke-miterlimit:2;stroke-dasharray:none;stroke-opacity:1" />
    </g>
    <g
       id="g109"
       style="display:inline">
      <path
         id="path91"
         d="m 596.10399,162.59866 c -49.99111,42.48569 -99.8678,85.13069 -149.95867,127.47467 -4.74718,3.97437 -9.5054,7.94105 -14.36933,11.776"
         style="fill:none;stroke:#0072b2;stroke-width:0.8;stroke-linecap:butt;stroke-linejoin:miter;stroke-miterlimit:2;stroke-dasharray:none;stroke-opacity:1" />
      <path
         id="path92"
         d="m 595.98932,162.02133 c -52.07036,24.39267 -104.27673,48.50977 -156.12533,73.348 -18.88705,9.33826 -38.20544,18.22282 -55.35333,30.6 -11.17042,8.2219 -21.32776,19.09361 -24.704,32.92133"
         style="fill:none;stroke:#e69f00;stroke-width:0.8;stroke-linecap:butt;stroke-linejoin:miter;stroke-miterlimit:2;stroke-dasharray:none;stroke-opacity:1" />
      <path
         id="path93"
         d="m 596.31199,162.328 c -42.98744,33.67546 -85.75106,67.60449 -129.01467,100.93199 -12.52734,9.56866 -25.16729,18.9718 -38.34933,27.63067"
         style="fill:none;stroke:#009e73;stroke-width:0.8;stroke-linecap:butt;stroke-linejoin:miter;stroke-miterlimit:2;stroke-dasharray:none;stroke-opacity:1" />
      <path
         id="path94"
         d="m 595.93199,162.52133 c -63.76888,46.35545 -127.6566,92.50441 -191.18267,139.176"
         style="fill:none;stroke:#cc79a7;stroke-width:0.8;stroke-linecap:butt;stroke-linejoin:miter;stroke-miterlimit:2;stroke-dasharray:none;stroke-opacity:1" />
      <path
         id="path95"
         d="m 596.22399,161.83333 c -48.83459,20.38952 -97.80463,40.40273 -146.41733,61.41733 -25.29806,11.19751 -51.17411,22.90993 -71.20267,42.552 -7.17648,6.93725 -13.58699,14.64236 -19.35333,22.78133"
         style="fill:none;stroke:#56b4e9;stroke-width:0.8;stroke-linecap:butt;stroke-linejoin:miter;stroke-miterlimit:2;stroke-dasharray:none;stroke-opacity:1" />
      <path
         id="path96"
         d="m 596.25999,162.66133 c -39.93375,38.99168 -79.58362,78.30622 -119.85334,116.912 -4.66829,4.41886 -9.35389,8.81278 -14.13599,13.11466"
         style="fill:none;stroke:#d55e00;stroke-width:0.8;stroke-linecap:butt;stroke-linejoin:miter;stroke-miterlimit:2;stroke-dasharray:none;stroke-opacity:1" />
      <path
         id="path97"
         d="m 595.89065,162.14533 c -52.98478,27.08895 -106.11896,53.87258 -158.82799,81.55733 -29.87139,15.97711 -60.10628,32.07243 -85.98,54.21467"
         style="fill:none;stroke:#f0e442;stroke-width:0.8;stroke-linecap:butt;stroke-linejoin:miter;stroke-miterlimit:2;stroke-dasharray:none;stroke-opacity:1" />
      <path
         id="path98"
         d="m 596.39065,162.04666 c -46.9954,29.34079 -94.16196,58.40915 -140.95333,88.06267 -15.93002,10.15885 -31.6812,20.55117 -47.20266,31.344"
         style="fill:none;stroke:#0072b2;stroke-width:0.8;stroke-linecap:butt;stroke-linejoin:miter;stroke-miterlimit:2;stroke-dasharray:none;stroke-opacity:1" />
      <path
         id="path99"
         d="m 595.92665,162.86 c -46.29849,42.08313 -92.36201,84.38098 -138.95333,126.16666 -3.6301,3.23289 -7.27018,6.45131 -10.92666,9.65067"
         style="fill:none;stroke:#e69f00;stroke-width:0.8;stroke-linecap:butt;stroke-linejoin:miter;stroke-miterlimit:2;stroke-dasharray:none;stroke-opacity:1" />
      <path
         id="path100"
         d="m 596.28132,161.932 c -48.0352,24.1471 -96.30453,47.88707 -144.06266,72.47466 -24.88724,12.89155 -49.75854,26.81861 -69.95867,46.604 -2.64904,2.53233 -5.22043,5.14332 -7.73333,7.812"
         style="fill:none;stroke:#009e73;stroke-width:0.8;stroke-linecap:butt;stroke-linejoin:miter;stroke-miterlimit:2;stroke-dasharray:none;stroke-opacity:1" />
      <path
         id="path101"
         d="m 596.48399,162.50533 c -31.19464,31.93939 -62.11002,64.18677 -93.98934,95.52533 -8.64338,8.42487 -17.4166,16.72263 -26.468,24.70933"
         style="fill:none;stroke:#cc79a7;stroke-width:0.8;stroke-linecap:butt;stroke-linejoin:miter;stroke-miterlimit:2;stroke-dasharray:none;stroke-opacity:1" />
      <path
         id="path102"
         d="m 595.73999,162.42666 c -57.55796,35.27028 -115.29258,70.24313 -172.42267,106.15733 -16.60854,10.49576 -33.13677,21.14224 -49.48933,32.04667"
         style="fill:none;stroke:#56b4e9;stroke-width:0.8;stroke-linecap:butt;stroke-linejoin:miter;stroke-miterlimit:2;stroke-dasharray:none;stroke-opacity:1" />
      <path
         id="path103"
         d="m 596.35999,161.73466 c -41.85175,16.19402 -83.85506,32.04008 -125.40667,49.052 -28.12197,11.50793 -55.66546,24.69288 -81.09333,41.42133 -11.37811,7.37279 -22.45965,15.22146 -33.376,23.26134"
         style="fill:none;stroke:#d55e00;stroke-width:0.8;stroke-linecap:butt;stroke-linejoin:miter;stroke-miterlimit:2;stroke-dasharray:none;stroke-opacity:1" />
      <path
         id="path104"
         d="m 596.18265,163.364 c -29.9991,41.27823 -59.72988,82.74595 -90.376,123.58399 -1.4027,1.84035 -2.7969,3.69059 -4.208,5.52534"
         style="fill:none;stroke:#f0e442;stroke-width:0.8;stroke-linecap:butt;stroke-linejoin:miter;stroke-miterlimit:2;stroke-dasharray:none;stroke-opacity:1" />
      <path
         id="path105"
         d="m 595.84399,161.86 c -54.98607,19.2941 -110.15752,38.08584 -164.68267,58.59333 -36.18621,13.62812 -71.88584,29.10214 -104.88533,49.39066 -11.66512,7.07636 -23.05636,14.5902 -34.30666,22.31734"
         style="fill:none;stroke:#0072b2;stroke-width:0.8;stroke-linecap:butt;stroke-linejoin:miter;stroke-miterlimit:2;stroke-dasharray:none;stroke-opacity:1" />
      <path
         id="path106"
         d="m 596.63999,162.08266 c -46.20482,36.76027 -92.28556,73.62243 -139.79067,108.56267"
         style="fill:none;stroke:#e69f00;stroke-width:0.8;stroke-linecap:butt;stroke-linejoin:miter;stroke-miterlimit:2;stroke-dasharray:none;stroke-opacity:1" />
      <path
         id="path107"
         d="m 595.47865,163.22933 c -52.5425,46.81338 -104.85756,93.85292 -158.04666,139.828"
         style="fill:none;stroke:#009e73;stroke-width:0.8;stroke-linecap:butt;stroke-linejoin:miter;stroke-miterlimit:2;stroke-dasharray:none;stroke-opacity:1" />
      <path
         id="path108"
         d="m 596.15065,161.48933 c -46.80356,8.68199 -93.69148,16.92945 -140.24399,26.86 -33.73371,7.23597 -67.41903,16.427 -98.104,32.56266 -29.04005,15.04026 -55.67983,34.22762 -82.19333,53.24934"
         style="fill:none;stroke:#cc79a7;stroke-width:0.8;stroke-linecap:butt;stroke-linejoin:miter;stroke-miterlimit:2;stroke-dasharray:none;stroke-opacity:1" />
      <path
         id="path109"
         d="m 597.02665,163.76533 c -11.25705,39.07516 -22.39701,78.18749 -37.22,116.09866"
         style="fill:none;stroke:#56b4e9;stroke-width:0.8;stroke-linecap:butt;stroke-linejoin:miter;stroke-miterlimit:2;stroke-dasharray:none;stroke-opacity:1" />
    </g>
    <g
       id="g71"
       transform="matrix(0.71575747,0.02030723,-0.02030723,0.71575747,276.37722,103.49516)"
       style="display:inline">
      <path
         fill="none"
         stroke-width="2.3"
         stroke-linecap="butt"
         stroke-linejoin="miter"
         stroke="#000000"
         stroke-opacity="1"
         stroke-miterlimit="2"
         d="m 461.21094,59.433594 -0.55469,0.851562 -0.54297,0.855469 -0.54297,0.863281 -0.53125,0.871094 -0.52734,0.878906 -0.51953,0.886719 -0.51172,0.894531 -0.50391,0.90625 -0.5,0.914063 -0.48828,0.921875 -0.48437,0.933594 -0.47266,0.941406 -0.46484,0.953125 -0.45313,0.960937 -0.44922,0.976563 -0.4375,0.984375 -0.42578,0.996094 -0.41797,1.011718 -0.40625,1.019532"
         id="path63-1" />
      <path
         fill="none"
         stroke-width="2.3"
         stroke-linecap="butt"
         stroke-linejoin="miter"
         stroke="#000000"
         stroke-opacity="1"
         stroke-miterlimit="2"
         d="m 461.21094,59.433594 -0.9336,0.398437 -0.9375,0.386719 -0.9414,0.382812 -0.95313,0.375 -0.95703,0.367188 -0.96484,0.355469 -0.96875,0.347656 -0.98047,0.34375 -0.98438,0.328125 -0.99609,0.324219 -1,0.3125 -1.01172,0.300781 -1.01953,0.292969 -1.02734,0.28125 -1.03516,0.273437 -1.04688,0.257813 -1.05859,0.246093 -2.98392,0.573235"
         id="path64-2" />
      <path
         fill="none"
         stroke-width="2.3"
         stroke-linecap="butt"
         stroke-linejoin="miter"
         stroke="#000000"
         stroke-opacity="1"
         stroke-miterlimit="2"
         d="m 453.11719,73.773438 -0.53516,-0.316407 -0.52344,-0.335937 -0.51172,-0.355469 -0.49609,-0.375 -0.48047,-0.394531 -0.46875,-0.410156 -0.44922,-0.425782 -0.43359,-0.445312 -0.41797,-0.460938 -0.39844,-0.476562 -0.38281,-0.492188 -0.36328,-0.503906 -0.34375,-0.519531 -0.32422,-0.53125 -0.30078,-0.542969 -0.28125,-0.550781 -0.26172,-0.566407 -0.24219,-0.574218 -0.21875,-0.582032"
         id="path65-7" />
      <path
         fill="none"
         stroke-width="2.3"
         stroke-linecap="butt"
         stroke-linejoin="miter"
         stroke="#000000"
         stroke-opacity="1"
         stroke-miterlimit="2"
         d="m 450.96875,72.246094 -0.0547,-0.359375 -0.0742,-0.347657 -0.0898,-0.339843 -0.10547,-0.328125 -0.125,-0.316406 -0.14062,-0.308594 -0.15235,-0.296875 -0.17187,-0.28125 -0.19141,-0.273438 -0.20312,-0.257812 -0.21875,-0.246094 -0.23438,-0.234375 -0.24609,-0.21875 -0.26563,-0.203125 -0.27734,-0.191406 -0.28906,-0.179688 -0.30469,-0.160156 -0.31641,-0.148437 -0.33203,-0.136719"
         id="path66-0" />
    </g>
    <g
       id="g111"
       style="display:inline">
      <path
         id="path64"
         d="m 400.75466,217.68266 c -3.09007,3.94725 -4.21431,9.12628 -5.75467,13.87467 -4.80188,17.4273 -8.79427,35.10985 -13.09333,52.68266"
         style="fill:none;stroke:#f0e442;stroke-width:0.8;stroke-linecap:butt;stroke-linejoin:miter;stroke-miterlimit:2;stroke-dasharray:none;stroke-opacity:1" />
      <path
         id="path37"
         d="m 400.75466,217.68266 c 8.46694,15.89112 17.15581,31.78085 23.756,48.66133 4.33022,11.2985 7.54518,23.31368 7.22933,35.516"
         style="fill:none;stroke:#0072b2;stroke-width:0.8;stroke-linecap:butt;stroke-linejoin:miter;stroke-miterlimit:2;stroke-dasharray:none;stroke-opacity:1" />
      <path
         id="path38"
         d="m 400.75466,217.68266 c -11.27198,14.54136 -22.7281,29.17973 -31.208,45.56267 -5.63394,10.99556 -9.50202,23.16269 -9.72934,35.65066"
         style="fill:none;stroke:#e69f00;stroke-width:0.8;stroke-linecap:butt;stroke-linejoin:miter;stroke-miterlimit:2;stroke-dasharray:none;stroke-opacity:1" />
      <path
         id="path39"
         d="m 400.75466,217.68266 c 11.3708,17.58588 22.44258,36.06832 26.38533,57.29067 1.01451,5.24184 1.63655,10.54617 1.93867,15.896"
         style="fill:none;stroke:#009e73;stroke-width:0.8;stroke-linecap:butt;stroke-linejoin:miter;stroke-miterlimit:2;stroke-dasharray:none;stroke-opacity:1" />
      <path
         id="path40"
         d="m 400.75466,217.68266 c 0.97669,28.01385 2.76652,55.96719 4.068,84.01467"
         style="fill:none;stroke:#cc79a7;stroke-width:0.8;stroke-linecap:butt;stroke-linejoin:miter;stroke-miterlimit:2;stroke-dasharray:none;stroke-opacity:1" />
      <path
         id="path41"
         d="m 400.75466,217.68266 c -13.81287,15.23684 -26.76098,31.56503 -34.71334,50.68667 -2.75885,6.5174 -4.98998,13.29973 -6.744,20.21466"
         style="fill:none;stroke:#56b4e9;stroke-width:0.8;stroke-linecap:butt;stroke-linejoin:miter;stroke-miterlimit:2;stroke-dasharray:none;stroke-opacity:1" />
      <path
         id="path42"
         d="m 400.75466,217.68266 c 20.05014,16.03548 39.51528,33.69533 52.40666,56.38 3.46512,6.00992 6.45319,12.24081 9.06267,18.63467"
         style="fill:none;stroke:#d55e00;stroke-width:0.8;stroke-linecap:butt;stroke-linejoin:miter;stroke-miterlimit:2;stroke-dasharray:none;stroke-opacity:1" />
      <path
         id="path43"
         d="m 400.75466,217.68266 c -15.10927,15.76249 -29.23156,33.2196 -38.86934,53.09867 -4.31778,8.74893 -7.87474,17.83074 -10.92666,27.12"
         style="fill:none;stroke:#f0e442;stroke-width:0.8;stroke-linecap:butt;stroke-linejoin:miter;stroke-miterlimit:2;stroke-dasharray:none;stroke-opacity:1" />
      <path
         id="path44"
         d="m 400.75466,217.68266 c 4.04461,15.33317 5.82518,31.69717 6.66666,48.06667 0.29908,5.22618 0.52708,10.46381 0.724,15.70933"
         style="fill:none;stroke:#0072b2;stroke-width:0.8;stroke-linecap:butt;stroke-linejoin:miter;stroke-miterlimit:2;stroke-dasharray:none;stroke-opacity:1" />
      <path
         id="path45"
         d="m 400.75466,217.68266 c 12.92192,15.74781 24.36145,33.02649 33.02666,51.48933 4.57998,9.61272 8.55886,19.49007 12.21334,29.50534"
         style="fill:none;stroke:#e69f00;stroke-width:0.8;stroke-linecap:butt;stroke-linejoin:miter;stroke-miterlimit:2;stroke-dasharray:none;stroke-opacity:1" />
      <path
         id="path46"
         d="m 400.75466,217.68266 c -19.9466,10.30032 -38.82839,22.64897 -54.63467,38.71867 -9.58895,9.62106 -18.0045,20.18085 -25.81733,31.16133"
         style="fill:none;stroke:#009e73;stroke-width:0.8;stroke-linecap:butt;stroke-linejoin:miter;stroke-miterlimit:2;stroke-dasharray:none;stroke-opacity:1" />
      <path
         id="path47"
         d="m 400.75466,217.68266 c 17.09585,8.19081 33.40397,18.63912 47.04266,31.896 10.48664,10.05807 19.62987,21.43097 28.20267,33.16133"
         style="fill:none;stroke:#cc79a7;stroke-width:0.8;stroke-linecap:butt;stroke-linejoin:miter;stroke-miterlimit:2;stroke-dasharray:none;stroke-opacity:1" />
      <path
         id="path48"
         d="m 400.75466,217.68266 c -10.01259,18.54983 -16.42566,39.11477 -21.536,59.72933 -1.93624,7.72039 -3.72395,15.46319 -5.464,23.21334"
         style="fill:none;stroke:#56b4e9;stroke-width:0.8;stroke-linecap:butt;stroke-linejoin:miter;stroke-miterlimit:2;stroke-dasharray:none;stroke-opacity:1" />
      <path
         id="path49"
         d="m 400.75466,217.68266 c -12.20434,7.73276 -21.78654,19.18524 -29.468,31.38 -5.4222,8.52719 -10.17772,17.41336 -14.78134,26.40667"
         style="fill:none;stroke:#d55e00;stroke-width:0.8;stroke-linecap:butt;stroke-linejoin:miter;stroke-miterlimit:2;stroke-dasharray:none;stroke-opacity:1" />
      <path
         id="path50"
         d="m 400.75466,217.68266 c 22.13198,9.62377 42.71658,22.34579 61.24,37.89067 13.92783,11.52558 26.88305,24.10784 39.60933,36.9"
         style="fill:none;stroke:#f0e442;stroke-width:0.8;stroke-linecap:butt;stroke-linejoin:miter;stroke-miterlimit:2;stroke-dasharray:none;stroke-opacity:1" />
      <path
         id="path51"
         d="m 400.75466,217.68266 c -21.79926,8.18312 -42.18118,19.47727 -60.79067,33.47867 -16.91794,12.62442 -32.58682,26.7354 -48.02666,40.99466"
         style="fill:none;stroke:#0072b2;stroke-width:0.8;stroke-linecap:butt;stroke-linejoin:miter;stroke-miterlimit:2;stroke-dasharray:none;stroke-opacity:1" />
      <path
         id="path52"
         d="m 400.75466,217.68266 c 12.10758,3.91917 22.32664,11.78048 30.91733,21.09333 9.24533,9.93787 17.29068,20.94235 25.25467,31.844"
         style="fill:none;stroke:#e69f00;stroke-width:0.8;stroke-linecap:butt;stroke-linejoin:miter;stroke-miterlimit:2;stroke-dasharray:none;stroke-opacity:1" />
      <path
         id="path53"
         d="m 400.75466,217.68266 c 10.16166,14.78775 16.90484,31.76755 23.39066,48.552 4.63468,12.19935 8.96736,24.49528 13.276,36.83867"
         style="fill:none;stroke:#009e73;stroke-width:0.8;stroke-linecap:butt;stroke-linejoin:miter;stroke-miterlimit:2;stroke-dasharray:none;stroke-opacity:1" />
      <path
         id="path54"
         d="m 400.75466,217.68266 c -21.48691,3.12792 -42.12718,10.45077 -61.50934,20.124 -21.90167,10.87227 -42.7571,23.65136 -63.62533,36.35467"
         style="fill:none;stroke:#cc79a7;stroke-width:0.8;stroke-linecap:butt;stroke-linejoin:miter;stroke-miterlimit:2;stroke-dasharray:none;stroke-opacity:1" />
      <path
         id="path55"
         d="m 400.75466,217.68266 c 25.78162,3.641 50.77704,11.69349 74.65199,21.864 28.69204,12.21367 56.5278,26.35327 84.4,40.32267"
         style="fill:none;stroke:#56b4e9;stroke-width:0.8;stroke-linecap:butt;stroke-linejoin:miter;stroke-miterlimit:2;stroke-dasharray:none;stroke-opacity:1" />
      <path
         id="path57"
         d="m 400.75466,217.68266 c -3.50406,16.50196 -7.28942,32.96631 -9.61867,49.724 -1.52504,11.96121 -2.24909,24.80547 2.43733,36.26533"
         style="fill:none;stroke:#f0e442;stroke-width:0.8;stroke-linecap:butt;stroke-linejoin:miter;stroke-miterlimit:2;stroke-dasharray:none;stroke-opacity:1" />
      <circle
         style="display:inline;fill:#000000;fill-opacity:1;stroke:#000000;stroke-width:0.452763;stroke-miterlimit:2;-inkscape-stroke:none;paint-order:markers fill stroke"
         id="path116"
         cx="400.14502"
         cy="218.11707"
         r="1.5491314" />
    </g>
  </g>
</svg>
